<svg width="633" height="176" viewBox="0 0 633 176" fill="none" xmlns="http://www.w3.org/2000/svg">
<path d="M20.472 96V28.8H30.84V86.016H75.768V96H20.472ZM140.271 96.96C134.319 96.96 128.879 96.096 123.951 94.368C119.023 92.576 114.735 90.112 111.087 86.976C107.439 83.776 104.623 80.096 102.639 75.936C100.655 71.712 99.663 67.2 99.663 62.4C99.663 57.6 100.655 53.12 102.639 48.96C104.623 44.736 107.439 41.056 111.087 37.92C114.735 34.72 119.023 32.256 123.951 30.528C128.879 28.736 134.319 27.84 140.271 27.84C146.159 27.84 151.567 28.736 156.495 30.528C161.423 32.256 165.711 34.72 169.359 37.92C173.007 41.056 175.823 44.736 177.807 48.96C179.855 53.12 180.879 57.6 180.879 62.4C180.879 67.2 179.855 71.712 177.807 75.936C175.823 80.096 173.007 83.776 169.359 86.976C165.711 90.112 161.423 92.576 156.495 94.368C151.567 96.096 146.159 96.96 140.271 96.96ZM140.271 86.88C144.687 86.88 148.719 86.272 152.367 85.056C156.015 83.776 159.183 82.048 161.871 79.872C164.559 77.632 166.639 75.04 168.111 72.096C169.583 69.088 170.319 65.856 170.319 62.4C170.319 58.944 169.583 55.744 168.111 52.8C166.639 49.792 164.559 47.2 161.871 45.024C159.183 42.784 156.015 41.056 152.367 39.84C148.719 38.56 144.687 37.92 140.271 37.92C135.855 37.92 131.791 38.56 128.079 39.84C124.431 41.056 121.263 42.784 118.575 45.024C115.887 47.2 113.807 49.792 112.335 52.8C110.927 55.744 110.223 58.944 110.223 62.4C110.223 65.856 110.927 69.088 112.335 72.096C113.807 75.04 115.887 77.632 118.575 79.872C121.263 82.048 124.431 83.776 128.079 85.056C131.791 86.272 135.855 86.88 140.271 86.88ZM198.413 96V88.416L247.853 37.152L251.597 38.976H200.909V28.8H263.021V36.288L213.581 87.648L209.933 85.824H264.077V96H198.413ZM283.256 96V88.416L332.696 37.152L336.44 38.976H285.752V28.8H347.864V36.288L298.424 87.648L294.776 85.824H348.92V96H283.256ZM367.332 96L400.164 28.8H412.26L444.9 96H433.476L410.916 49.728C410.34 48.512 409.764 47.328 409.188 46.176C408.612 45.024 408.036 43.872 407.46 42.72C406.948 41.568 406.436 40.352 405.924 39.072C405.412 37.792 404.9 36.384 404.388 34.848L407.46 34.752C406.884 36.288 406.308 37.728 405.732 39.072C405.22 40.416 404.676 41.696 404.1 42.912C403.524 44.128 402.948 45.344 402.372 46.56C401.796 47.712 401.22 48.896 400.644 50.112L378.276 96H367.332ZM381.636 80.256L385.764 70.272H425.604L427.236 80.256H381.636ZM484.105 96V38.784H458.569V28.8H520.585V38.784H494.473V96H484.105ZM580.146 96.96C574.194 96.96 568.754 96.096 563.826 94.368C558.898 92.576 554.61 90.112 550.962 86.976C547.314 83.776 544.498 80.096 542.514 75.936C540.53 71.712 539.538 67.2 539.538 62.4C539.538 57.6 540.53 53.12 542.514 48.96C544.498 44.736 547.314 41.056 550.962 37.92C554.61 34.72 558.898 32.256 563.826 30.528C568.754 28.736 574.194 27.84 580.146 27.84C586.034 27.84 591.442 28.736 596.37 30.528C601.298 32.256 605.586 34.72 609.234 37.92C612.882 41.056 615.698 44.736 617.682 48.96C619.73 53.12 620.754 57.6 620.754 62.4C620.754 67.2 619.73 71.712 617.682 75.936C615.698 80.096 612.882 83.776 609.234 86.976C605.586 90.112 601.298 92.576 596.37 94.368C591.442 96.096 586.034 96.96 580.146 96.96ZM580.146 86.88C584.562 86.88 588.594 86.272 592.242 85.056C595.89 83.776 599.058 82.048 601.746 79.872C604.434 77.632 606.514 75.04 607.986 72.096C609.458 69.088 610.194 65.856 610.194 62.4C610.194 58.944 609.458 55.744 607.986 52.8C606.514 49.792 604.434 47.2 601.746 45.024C599.058 42.784 595.89 41.056 592.242 39.84C588.594 38.56 584.562 37.92 580.146 37.92C575.73 37.92 571.666 38.56 567.954 39.84C564.306 41.056 561.138 42.784 558.45 45.024C555.762 47.2 553.682 49.792 552.21 52.8C550.802 55.744 550.098 58.944 550.098 62.4C550.098 65.856 550.802 69.088 552.21 72.096C553.682 75.04 555.762 77.632 558.45 79.872C561.138 82.048 564.306 83.776 567.954 85.056C571.666 86.272 575.73 86.88 580.146 86.88Z" fill="white"/>
<path d="M416.257 164.48C413.857 164.48 411.633 164.24 409.585 163.76C407.569 163.28 405.713 162.56 404.017 161.6C402.353 160.64 400.833 159.424 399.457 157.952L402.721 153.632C404.801 155.776 406.913 157.344 409.057 158.336C411.233 159.328 413.649 159.824 416.305 159.824C417.969 159.824 419.569 159.632 421.105 159.248C422.641 158.832 423.905 158.224 424.897 157.424C425.889 156.592 426.385 155.552 426.385 154.304C426.385 153.504 426.113 152.848 425.569 152.336C425.025 151.824 424.305 151.408 423.409 151.088C422.545 150.768 421.601 150.512 420.577 150.32C419.553 150.128 418.561 149.984 417.601 149.888C416.673 149.792 415.889 149.712 415.249 149.648C413.105 149.36 411.153 148.976 409.393 148.496C407.665 147.984 406.177 147.344 404.929 146.576C403.713 145.808 402.769 144.864 402.097 143.744C401.457 142.624 401.137 141.328 401.137 139.856C401.137 138.288 401.505 136.896 402.241 135.68C403.009 134.432 404.065 133.392 405.409 132.56C406.785 131.696 408.369 131.04 410.161 130.592C411.985 130.144 413.953 129.92 416.065 129.92C418.305 129.92 420.353 130.144 422.209 130.592C424.065 131.04 425.713 131.712 427.153 132.608C428.625 133.472 429.841 134.544 430.801 135.824L427.345 139.616C426.449 138.528 425.409 137.616 424.225 136.88C423.041 136.112 421.745 135.536 420.337 135.152C418.961 134.768 417.489 134.576 415.921 134.576C414.193 134.576 412.641 134.768 411.265 135.152C409.889 135.536 408.801 136.08 408.001 136.784C407.201 137.456 406.801 138.288 406.801 139.28C406.801 140.144 407.041 140.88 407.521 141.488C408.033 142.096 408.737 142.608 409.633 143.024C410.529 143.408 411.601 143.728 412.849 143.984C414.129 144.24 415.537 144.464 417.073 144.656C418.993 144.88 420.849 145.168 422.641 145.52C424.433 145.872 426.033 146.368 427.441 147.008C428.849 147.616 429.969 148.448 430.801 149.504C431.633 150.56 432.049 151.936 432.049 153.632C432.049 155.808 431.393 157.712 430.081 159.344C428.769 160.976 426.929 162.24 424.561 163.136C422.225 164.032 419.457 164.48 416.257 164.48ZM455.74 164V135.392H442.972V130.4H473.98V135.392H460.924V164H455.74ZM503.76 164.48C500.785 164.48 498.065 164.048 495.601 163.184C493.137 162.288 490.993 161.056 489.169 159.488C487.345 157.888 485.937 156.048 484.945 153.968C483.953 151.856 483.457 149.6 483.457 147.2C483.457 144.8 483.953 142.56 484.945 140.48C485.937 138.368 487.345 136.528 489.169 134.96C490.993 133.36 493.137 132.128 495.601 131.264C498.065 130.368 500.785 129.92 503.76 129.92C506.705 129.92 509.409 130.368 511.873 131.264C514.337 132.128 516.481 133.36 518.305 134.96C520.129 136.528 521.537 138.368 522.529 140.48C523.553 142.56 524.065 144.8 524.065 147.2C524.065 149.6 523.553 151.856 522.529 153.968C521.537 156.048 520.129 157.888 518.305 159.488C516.481 161.056 514.337 162.288 511.873 163.184C509.409 164.048 506.705 164.48 503.76 164.48ZM503.76 159.44C505.969 159.44 507.985 159.136 509.809 158.528C511.633 157.888 513.217 157.024 514.561 155.936C515.905 154.816 516.945 153.52 517.681 152.048C518.417 150.544 518.785 148.928 518.785 147.2C518.785 145.472 518.417 143.872 517.681 142.4C516.945 140.896 515.905 139.6 514.561 138.512C513.217 137.392 511.633 136.528 509.809 135.92C507.985 135.28 505.969 134.96 503.76 134.96C501.553 134.96 499.521 135.28 497.665 135.92C495.841 136.528 494.257 137.392 492.913 138.512C491.569 139.6 490.529 140.896 489.793 142.4C489.089 143.872 488.737 145.472 488.737 147.2C488.737 148.928 489.089 150.544 489.793 152.048C490.529 153.52 491.569 154.816 492.913 155.936C494.257 157.024 495.841 157.888 497.665 158.528C499.521 159.136 501.553 159.44 503.76 159.44ZM538.924 164V130.4H558.556C560.54 130.4 562.348 130.864 563.98 131.792C565.644 132.688 566.972 133.92 567.964 135.488C568.956 137.056 569.452 138.8 569.452 140.72C569.452 142.736 568.908 144.576 567.82 146.24C566.732 147.872 565.292 149.184 563.5 150.176C561.708 151.136 559.74 151.616 557.596 151.616H544.108V164H538.924ZM564.94 164L553.516 148.832L559.036 147.632L571.42 164.048L564.94 164ZM544.108 146.624H557.116C558.332 146.624 559.452 146.352 560.476 145.808C561.532 145.264 562.364 144.544 562.972 143.648C563.612 142.752 563.932 141.776 563.932 140.72C563.932 139.728 563.612 138.832 562.972 138.032C562.364 137.232 561.532 136.592 560.476 136.112C559.452 135.632 558.332 135.392 557.116 135.392H544.108V146.624ZM587.439 164V130.4H615.327V135.392H592.623V159.008H615.327V164H587.439ZM590.271 149.264V144.272H612.687V149.264H590.271Z" fill="#8162FF"/>
</svg>
